<svg width="1200" height="630" viewBox="0 0 1200 630" fill="none" xmlns="http://www.w3.org/2000/svg">
  <rect width="1200" height="630" fill="#EDF9FF"/>
  <circle cx="930" cy="104" r="180" fill="#BCEFE7" fill-opacity="0.45"/>
  <circle cx="190" cy="500" r="220" fill="#B9DFFF" fill-opacity="0.38"/>
  <rect x="90" y="76" width="1020" height="478" rx="48" fill="white" fill-opacity="0.78" stroke="#D7ECF5" stroke-width="2"/>
  <path d="M636 226C666 173 734 184 750 239C764 288 736 393 704 430C688 449 670 439 670 414C670 375 649 350 623 350C597 350 576 375 576 414C576 439 558 449 542 430C510 393 482 288 496 239C512 184 580 173 610 226C616 237 630 237 636 226Z" fill="#FFFFFF" stroke="#2E7DA1" stroke-width="10"/>
  <path d="M507 263C561 286 683 286 739 263" stroke="#49B8B2" stroke-width="14" stroke-linecap="round"/>
  <text x="150" y="196" fill="#12324A" font-family="Arial, 'Microsoft YaHei', sans-serif" font-size="58" font-weight="800">护牙选择器</text>
  <text x="150" y="276" fill="#235B74" font-family="Arial, 'Microsoft YaHei', sans-serif" font-size="36" font-weight="600">牙膏怎么选，牙该怎么刷？</text>
  <text x="150" y="342" fill="#5C7B8C" font-family="Arial, 'Microsoft YaHei', sans-serif" font-size="26">扫码进入后，选择你的口腔问题，生成个人护牙建议。</text>
  <rect x="150" y="410" width="230" height="64" rx="32" fill="#0F8CA8"/>
  <text x="204" y="453" fill="white" font-family="Arial, 'Microsoft YaHei', sans-serif" font-size="26" font-weight="700">开始判断</text>
</svg>
